<mxfile host="app.diagrams.net" modified="2021-10-18T06:16:03.198Z" agent="5.0 (Windows)" etag="xTWUz6CFz-Zg79qU3x7C" version="15.5.4" type="github">
  <diagram id="yp8qhJWwcoM9yaSAJzvi" name="Page-1">
    <mxGraphModel dx="1102" dy="639" grid="1" gridSize="10" guides="1" tooltips="1" connect="1" arrows="1" fold="1" page="1" pageScale="1" pageWidth="1169" pageHeight="827" math="0" shadow="0">
      <root>
        <mxCell id="0" />
        <mxCell id="1" parent="0" />
        <mxCell id="tyrEupx4gvLmsVYoJoOi-69" value="" style="rounded=0;whiteSpace=wrap;html=1;" parent="1" vertex="1">
          <mxGeometry x="140" y="10" width="860" height="770" as="geometry" />
        </mxCell>
        <mxCell id="tyrEupx4gvLmsVYoJoOi-36" style="edgeStyle=none;rounded=0;orthogonalLoop=1;jettySize=auto;html=1;exitX=1;exitY=0.5;exitDx=0;exitDy=0;entryX=0;entryY=0.5;entryDx=0;entryDy=0;" parent="1" source="tyrEupx4gvLmsVYoJoOi-8" target="tyrEupx4gvLmsVYoJoOi-12" edge="1">
          <mxGeometry relative="1" as="geometry" />
        </mxCell>
        <mxCell id="tyrEupx4gvLmsVYoJoOi-8" value="Log out" style="ellipse;whiteSpace=wrap;html=1;" parent="1" vertex="1">
          <mxGeometry x="280" y="140" width="90" height="50" as="geometry" />
        </mxCell>
        <mxCell id="tyrEupx4gvLmsVYoJoOi-34" style="edgeStyle=none;rounded=0;orthogonalLoop=1;jettySize=auto;html=1;exitX=1;exitY=0.5;exitDx=0;exitDy=0;entryX=0;entryY=0.5;entryDx=0;entryDy=0;" parent="1" source="tyrEupx4gvLmsVYoJoOi-9" target="tyrEupx4gvLmsVYoJoOi-10" edge="1">
          <mxGeometry relative="1" as="geometry" />
        </mxCell>
        <mxCell id="tyrEupx4gvLmsVYoJoOi-9" value="Log in" style="ellipse;whiteSpace=wrap;html=1;" parent="1" vertex="1">
          <mxGeometry x="210" y="600" width="90" height="50" as="geometry" />
        </mxCell>
        <mxCell id="tyrEupx4gvLmsVYoJoOi-35" style="edgeStyle=none;rounded=0;orthogonalLoop=1;jettySize=auto;html=1;exitX=1;exitY=0.5;exitDx=0;exitDy=0;" parent="1" source="tyrEupx4gvLmsVYoJoOi-10" target="tyrEupx4gvLmsVYoJoOi-11" edge="1">
          <mxGeometry relative="1" as="geometry" />
        </mxCell>
        <mxCell id="tyrEupx4gvLmsVYoJoOi-10" value="Validate credentials" style="ellipse;whiteSpace=wrap;html=1;" parent="1" vertex="1">
          <mxGeometry x="420" y="600" width="90" height="50" as="geometry" />
        </mxCell>
        <mxCell id="tyrEupx4gvLmsVYoJoOi-61" style="edgeStyle=none;rounded=0;orthogonalLoop=1;jettySize=auto;html=1;exitX=0.5;exitY=0;exitDx=0;exitDy=0;entryX=0;entryY=0.5;entryDx=0;entryDy=0;" parent="1" source="tyrEupx4gvLmsVYoJoOi-11" target="tyrEupx4gvLmsVYoJoOi-13" edge="1">
          <mxGeometry relative="1" as="geometry" />
        </mxCell>
        <mxCell id="tyrEupx4gvLmsVYoJoOi-64" style="edgeStyle=orthogonalEdgeStyle;rounded=0;orthogonalLoop=1;jettySize=auto;html=1;exitX=1;exitY=0.5;exitDx=0;exitDy=0;entryX=0;entryY=0.5;entryDx=0;entryDy=0;" parent="1" source="tyrEupx4gvLmsVYoJoOi-11" target="tyrEupx4gvLmsVYoJoOi-16" edge="1">
          <mxGeometry relative="1" as="geometry">
            <Array as="points">
              <mxPoint x="890" y="505" />
              <mxPoint x="890" y="155" />
            </Array>
          </mxGeometry>
        </mxCell>
        <mxCell id="tyrEupx4gvLmsVYoJoOi-11" value="create session" style="ellipse;whiteSpace=wrap;html=1;" parent="1" vertex="1">
          <mxGeometry x="260" y="480" width="90" height="50" as="geometry" />
        </mxCell>
        <mxCell id="tyrEupx4gvLmsVYoJoOi-59" style="edgeStyle=none;rounded=0;orthogonalLoop=1;jettySize=auto;html=1;exitX=1;exitY=0.5;exitDx=0;exitDy=0;" parent="1" source="tyrEupx4gvLmsVYoJoOi-12" target="tyrEupx4gvLmsVYoJoOi-16" edge="1">
          <mxGeometry relative="1" as="geometry" />
        </mxCell>
        <mxCell id="tyrEupx4gvLmsVYoJoOi-12" value="destroy session" style="ellipse;whiteSpace=wrap;html=1;" parent="1" vertex="1">
          <mxGeometry x="430" y="100" width="90" height="50" as="geometry" />
        </mxCell>
        <mxCell id="tyrEupx4gvLmsVYoJoOi-42" style="edgeStyle=none;rounded=0;orthogonalLoop=1;jettySize=auto;html=1;exitX=1;exitY=0.5;exitDx=0;exitDy=0;entryX=0;entryY=0.5;entryDx=0;entryDy=0;" parent="1" source="tyrEupx4gvLmsVYoJoOi-13" target="tyrEupx4gvLmsVYoJoOi-41" edge="1">
          <mxGeometry relative="1" as="geometry" />
        </mxCell>
        <mxCell id="tyrEupx4gvLmsVYoJoOi-13" value="Find location" style="ellipse;whiteSpace=wrap;html=1;" parent="1" vertex="1">
          <mxGeometry x="420" y="200" width="90" height="50" as="geometry" />
        </mxCell>
        <mxCell id="tyrEupx4gvLmsVYoJoOi-71" style="edgeStyle=none;rounded=0;orthogonalLoop=1;jettySize=auto;html=1;exitX=0.5;exitY=1;exitDx=0;exitDy=0;entryX=0.5;entryY=0;entryDx=0;entryDy=0;" parent="1" source="tyrEupx4gvLmsVYoJoOi-16" target="tyrEupx4gvLmsVYoJoOi-19" edge="1">
          <mxGeometry relative="1" as="geometry" />
        </mxCell>
        <mxCell id="tyrEupx4gvLmsVYoJoOi-16" value="Database" style="ellipse;whiteSpace=wrap;html=1;" parent="1" vertex="1">
          <mxGeometry x="690" y="130" width="90" height="50" as="geometry" />
        </mxCell>
        <mxCell id="tyrEupx4gvLmsVYoJoOi-72" style="edgeStyle=none;rounded=0;orthogonalLoop=1;jettySize=auto;html=1;exitX=0.5;exitY=1;exitDx=0;exitDy=0;entryX=0.5;entryY=0;entryDx=0;entryDy=0;" parent="1" source="tyrEupx4gvLmsVYoJoOi-19" target="tyrEupx4gvLmsVYoJoOi-41" edge="1">
          <mxGeometry relative="1" as="geometry" />
        </mxCell>
        <mxCell id="tyrEupx4gvLmsVYoJoOi-19" value="Prepare Dataset" style="ellipse;whiteSpace=wrap;html=1;" parent="1" vertex="1">
          <mxGeometry x="770" y="200" width="90" height="50" as="geometry" />
        </mxCell>
        <mxCell id="tyrEupx4gvLmsVYoJoOi-22" value="Examine and update model" style="ellipse;whiteSpace=wrap;html=1;" parent="1" vertex="1">
          <mxGeometry x="790" y="440" width="90" height="50" as="geometry" />
        </mxCell>
        <mxCell id="tyrEupx4gvLmsVYoJoOi-30" style="edgeStyle=none;rounded=0;orthogonalLoop=1;jettySize=auto;html=1;exitX=0.5;exitY=0.5;exitDx=0;exitDy=0;exitPerimeter=0;entryX=0;entryY=0.5;entryDx=0;entryDy=0;" parent="1" source="tyrEupx4gvLmsVYoJoOi-24" target="tyrEupx4gvLmsVYoJoOi-9" edge="1">
          <mxGeometry relative="1" as="geometry" />
        </mxCell>
        <mxCell id="tyrEupx4gvLmsVYoJoOi-31" style="edgeStyle=none;rounded=0;orthogonalLoop=1;jettySize=auto;html=1;exitX=0.5;exitY=0.5;exitDx=0;exitDy=0;exitPerimeter=0;entryX=0;entryY=0.5;entryDx=0;entryDy=0;" parent="1" source="tyrEupx4gvLmsVYoJoOi-24" target="tyrEupx4gvLmsVYoJoOi-8" edge="1">
          <mxGeometry relative="1" as="geometry" />
        </mxCell>
        <mxCell id="tyrEupx4gvLmsVYoJoOi-33" style="edgeStyle=none;rounded=0;orthogonalLoop=1;jettySize=auto;html=1;exitX=0.5;exitY=0.5;exitDx=0;exitDy=0;exitPerimeter=0;entryX=0;entryY=0.5;entryDx=0;entryDy=0;" parent="1" source="tyrEupx4gvLmsVYoJoOi-24" target="tyrEupx4gvLmsVYoJoOi-32" edge="1">
          <mxGeometry relative="1" as="geometry" />
        </mxCell>
        <mxCell id="tyrEupx4gvLmsVYoJoOi-24" value="User" style="shape=umlActor;verticalLabelPosition=bottom;verticalAlign=top;html=1;outlineConnect=0;" parent="1" vertex="1">
          <mxGeometry x="60" y="314" width="60" height="100" as="geometry" />
        </mxCell>
        <mxCell id="tyrEupx4gvLmsVYoJoOi-51" style="edgeStyle=none;rounded=0;orthogonalLoop=1;jettySize=auto;html=1;exitX=0.5;exitY=0.5;exitDx=0;exitDy=0;exitPerimeter=0;entryX=1;entryY=0.5;entryDx=0;entryDy=0;" parent="1" source="tyrEupx4gvLmsVYoJoOi-28" target="tyrEupx4gvLmsVYoJoOi-22" edge="1">
          <mxGeometry relative="1" as="geometry" />
        </mxCell>
        <mxCell id="tyrEupx4gvLmsVYoJoOi-70" style="edgeStyle=none;rounded=0;orthogonalLoop=1;jettySize=auto;html=1;exitX=0.5;exitY=0.5;exitDx=0;exitDy=0;exitPerimeter=0;entryX=1;entryY=0.5;entryDx=0;entryDy=0;" parent="1" source="tyrEupx4gvLmsVYoJoOi-28" target="tyrEupx4gvLmsVYoJoOi-19" edge="1">
          <mxGeometry relative="1" as="geometry" />
        </mxCell>
        <mxCell id="tyrEupx4gvLmsVYoJoOi-28" value="Developer" style="shape=umlActor;verticalLabelPosition=bottom;verticalAlign=top;html=1;outlineConnect=0;" parent="1" vertex="1">
          <mxGeometry x="1020" y="455" width="60" height="100" as="geometry" />
        </mxCell>
        <mxCell id="tyrEupx4gvLmsVYoJoOi-56" style="edgeStyle=none;rounded=0;orthogonalLoop=1;jettySize=auto;html=1;exitX=1;exitY=0.5;exitDx=0;exitDy=0;entryX=0;entryY=0.5;entryDx=0;entryDy=0;" parent="1" source="tyrEupx4gvLmsVYoJoOi-32" target="tyrEupx4gvLmsVYoJoOi-55" edge="1">
          <mxGeometry relative="1" as="geometry" />
        </mxCell>
        <mxCell id="tyrEupx4gvLmsVYoJoOi-32" value="Sign Up" style="ellipse;whiteSpace=wrap;html=1;" parent="1" vertex="1">
          <mxGeometry x="270" y="60" width="90" height="50" as="geometry" />
        </mxCell>
        <mxCell id="tyrEupx4gvLmsVYoJoOi-65" style="edgeStyle=orthogonalEdgeStyle;rounded=0;orthogonalLoop=1;jettySize=auto;html=1;exitX=0.5;exitY=0;exitDx=0;exitDy=0;entryX=0.5;entryY=1;entryDx=0;entryDy=0;" parent="1" source="tyrEupx4gvLmsVYoJoOi-41" target="tyrEupx4gvLmsVYoJoOi-16" edge="1">
          <mxGeometry relative="1" as="geometry" />
        </mxCell>
        <mxCell id="tyrEupx4gvLmsVYoJoOi-41" value="apply algorithm" style="ellipse;whiteSpace=wrap;html=1;" parent="1" vertex="1">
          <mxGeometry x="670" y="390" width="90" height="50" as="geometry" />
        </mxCell>
        <mxCell id="tyrEupx4gvLmsVYoJoOi-57" style="edgeStyle=none;rounded=0;orthogonalLoop=1;jettySize=auto;html=1;exitX=1;exitY=0.5;exitDx=0;exitDy=0;entryX=0;entryY=0.5;entryDx=0;entryDy=0;" parent="1" source="tyrEupx4gvLmsVYoJoOi-55" target="tyrEupx4gvLmsVYoJoOi-16" edge="1">
          <mxGeometry relative="1" as="geometry" />
        </mxCell>
        <mxCell id="tyrEupx4gvLmsVYoJoOi-55" value="Enter Details" style="ellipse;whiteSpace=wrap;html=1;" parent="1" vertex="1">
          <mxGeometry x="480" y="20" width="90" height="50" as="geometry" />
        </mxCell>
        <mxCell id="tyrEupx4gvLmsVYoJoOi-68" style="edgeStyle=none;rounded=0;orthogonalLoop=1;jettySize=auto;html=1;exitX=0;exitY=0.5;exitDx=0;exitDy=0;entryX=1;entryY=0;entryDx=0;entryDy=0;" parent="1" source="tyrEupx4gvLmsVYoJoOi-66" target="tyrEupx4gvLmsVYoJoOi-11" edge="1">
          <mxGeometry relative="1" as="geometry" />
        </mxCell>
        <mxCell id="tyrEupx4gvLmsVYoJoOi-66" value="Result" style="ellipse;whiteSpace=wrap;html=1;" parent="1" vertex="1">
          <mxGeometry x="420" y="440" width="90" height="50" as="geometry" />
        </mxCell>
        <mxCell id="IWJobGnumpZM9aKbG377-1" value="" style="endArrow=classic;html=1;rounded=0;exitX=0;exitY=1;exitDx=0;exitDy=0;entryX=1;entryY=0.5;entryDx=0;entryDy=0;" edge="1" parent="1" source="tyrEupx4gvLmsVYoJoOi-41" target="tyrEupx4gvLmsVYoJoOi-66">
          <mxGeometry width="50" height="50" relative="1" as="geometry">
            <mxPoint x="530" y="440" as="sourcePoint" />
            <mxPoint x="580" y="390" as="targetPoint" />
          </mxGeometry>
        </mxCell>
      </root>
    </mxGraphModel>
  </diagram>
</mxfile>
